<?xml version="1.0" standalone="no"?>
<!DOCTYPE svg PUBLIC "-//W3C//DTD SVG 20010904//EN"
 "http://www.w3.org/TR/2001/REC-SVG-20010904/DTD/svg10.dtd">
<svg version="1.0" xmlns="http://www.w3.org/2000/svg"
 width="208.000000pt" height="208.000000pt" viewBox="0 0 208.000000 208.000000"
 preserveAspectRatio="xMidYMid meet">
<metadata>
Created by potrace 1.11, written by Peter Selinger 2001-2013
</metadata>
<g transform="translate(0.000000,208.000000) scale(0.100000,-0.100000)"
fill="#000000" stroke="none">
<path d="M857 2064 c-442 -87 -772 -420 -845 -857 -9 -54 -8 -301 2 -350 32
-166 119 -354 216 -472 93 -113 247 -231 375 -290 52 -24 139 -54 162 -57 5 0
17 -4 29 -8 44 -17 104 -23 229 -24 174 -1 285 17 395 66 96 42 117 53 177 89
242 148 430 433 471 714 9 58 8 282 0 334 -57 339 -290 640 -604 782 -125 56
-242 81 -399 84 -86 1 -166 -3 -208 -11z m109 -665 l68 -171 19 23 c47 58 91
179 99 274 l4 40 69 0 69 0 98 -245 c54 -135 102 -254 107 -265 22 -47 161
-403 161 -412 0 -5 -23 -8 -52 -8 l-52 1 -33 84 c-18 47 -37 94 -42 105 -5 11
-17 40 -26 65 -9 25 -22 59 -30 75 -7 17 -43 107 -80 200 -37 94 -73 183 -81
199 -8 16 -14 35 -14 43 0 24 -17 5 -23 -25 -10 -49 -54 -135 -102 -201 l-47
-64 88 -221 c48 -121 92 -227 97 -234 6 -7 7 -16 3 -20 -11 -11 -96 -9 -105 2
-4 6 -43 100 -86 208 l-79 196 -40 -27 c-71 -47 -181 -88 -261 -97 -27 -3 -53
-9 -57 -13 -4 -3 -31 -67 -61 -141 l-54 -134 -51 -1 c-29 0 -52 3 -52 7 0 7
149 388 170 433 5 11 50 124 101 250 50 127 93 233 96 238 2 4 28 7 58 7 l53
0 68 -171z"/>
<path d="M833 1408 c-7 -13 -43 -102 -81 -198 -78 -199 -79 -196 28 -160 72
24 170 84 170 103 0 7 -24 72 -53 145 -48 120 -54 130 -64 110z"/>
</g>
</svg>
