<?xml version="1.0" encoding="UTF-8" standalone="no"?>
<svg width="32px" height="22px" viewBox="0 0 32 22" version="1.1" xmlns="http://www.w3.org/2000/svg" xmlns:xlink="http://www.w3.org/1999/xlink" xmlns:sketch="http://www.bohemiancoding.com/sketch/ns">
    <!-- Generator: Sketch 3.4.4 (17249) - http://www.bohemiancoding.com/sketch -->
    <title>turnright-a</title>
    <desc>Created with Sketch.</desc>
    <defs></defs>
    <g id="Services" stroke="none" stroke-width="1" fill="none" fill-rule="evenodd" sketch:type="MSPage">
        <g id="Services-L" sketch:type="MSArtboardGroup" transform="translate(-524.000000, -1989.000000)" fill="#85B4D2">
            <g id="contact-cta" sketch:type="MSLayerGroup" transform="translate(0.000000, 1838.000000)">
                <path d="M545.707,172.707 C545.526,172.888 545.276,173 545,173 C544.447,173 544,172.553 544,172 C544,171.724 544.112,171.474 544.293,171.293 L552.586,163 L525,163 C524.447,163 524,162.553 524,162 L524,152 C524,151.447 524.447,151 525,151 C525.553,151 526,151.447 526,152 L526,161 L552.586,161 L544.293,152.707 C544.111,152.525 544,152.276 544,152 C544,151.447 544.447,151 545,151 C545.276,151 545.527,151.112 545.708,151.294 L555.707,161.293 C555.889,161.474 556,161.724 556,162 C556,162.276 555.888,162.526 555.706,162.708 L545.707,172.707 Z" id="turnright-a" sketch:type="MSShapeGroup"></path>
            </g>
        </g>
    </g>
</svg>