<?xml version="1.0" encoding="UTF-8" standalone="no"?>
<svg width="32px" height="22px" viewBox="0 0 32 22" version="1.1" xmlns="http://www.w3.org/2000/svg" xmlns:xlink="http://www.w3.org/1999/xlink" xmlns:sketch="http://www.bohemiancoding.com/sketch/ns">
    <!-- Generator: Sketch 3.4.3 (16618) - http://www.bohemiancoding.com/sketch -->
    <title>turnright-a</title>
    <desc>Created with Sketch.</desc>
    <defs></defs>
    <g id="About" stroke="none" stroke-width="1" fill="none" fill-rule="evenodd" sketch:type="MSPage">
        <g id="About-XL" sketch:type="MSArtboardGroup" transform="translate(-704.000000, -1321.000000)" fill="#FFFFFF">
            <g id="contact-cta" sketch:type="MSLayerGroup" transform="translate(0.000000, 1200.000000)">
                <path d="M725.707,121.293 C725.526,121.112 725.276,121 725,121 C724.447,121 724,121.447 724,122 C724,122.276 724.112,122.526 724.293,122.707 L732.586,131 L705,131 C704.447,131 704,131.447 704,132 L704,142 C704,142.553 704.447,143 705,143 C705.553,143 706,142.553 706,142 L706,133 L732.586,133 L724.293,141.293 C724.111,141.475 724,141.724 724,142 C724,142.553 724.447,143 725,143 C725.276,143 725.527,142.888 725.708,142.706 L735.707,132.707 C735.889,132.526 736,132.276 736,132 C736,131.724 735.888,131.474 735.706,131.292 L725.707,121.293 Z" id="turnright-a" sketch:type="MSShapeGroup" transform="translate(720.000000, 132.000000) scale(1, -1) translate(-720.000000, -132.000000) "></path>
            </g>
        </g>
    </g>
</svg>