<?xml version="1.0" encoding="UTF-8" standalone="no"?>
<svg width="90px" height="44px" viewBox="0 0 90 44" version="1.1" xmlns="http://www.w3.org/2000/svg" xmlns:xlink="http://www.w3.org/1999/xlink">
    <!-- Generator: Sketch 3.7.1 (28215) - http://www.bohemiancoding.com/sketch -->
    <title>desk</title>
    <desc>Created with Sketch.</desc>
    <defs></defs>
    <g id="Of-Interest" stroke="none" stroke-width="1" fill="none" fill-rule="evenodd">
        <g id="Of-Interest-XL" transform="translate(-675.000000, -120.000000)" fill="#4E4D5C">
            <g id="masthead" transform="translate(40.000000, 120.000000)">
                <path d="M723,0 L691,0 C689.894,0 689,0.897 689,2 L689,42 C689,43.104 689.894,44 691,44 L723,44 C724.104,44 725,43.104 725,42 L725,2 C725,0.897 724.104,0 723,0 L723,0 Z M723,42 L721,42 L721,38 C721,37.448 720.553,37 720,37 C719.447,37 719,37.448 719,38 L719,42 L717,42 L717,38 C717,37.448 716.553,37 716,37 C715.447,37 715,37.448 715,38 L715,42 L713,42 L713,37 C713,36.448 712.553,36 712,36 C711.447,36 711,36.448 711,37 L711,42 L707,42 L707,37 C707,36.448 706.553,36 706,36 C705.447,36 705,36.448 705,37 L705,42 L703,42 L703,38 C703,37.448 702.553,37 702,37 C701.447,37 701,37.448 701,38 L701,42 L699,42 L699,37 C699,36.448 698.553,36 698,36 C697.447,36 697,36.448 697,37 L697,42 L695,42 L695,38 C695,37.448 694.553,37 694,37 C693.447,37 693,37.448 693,38 L693,42 L691,42 L691,34 L723,34 L723,42 L723,42 Z M723,32 L721,32 L721,27 C721,26.447 720.553,26 720,26 C719.447,26 719,26.447 719,27 L719,32 L717,32 L717,27 C717,26.447 716.553,26 716,26 C715.447,26 715,26.447 715,27 L715,32 L711,32 L711,28 C711,27.448 710.553,27 710,27 C709.447,27 709,27.448 709,28 L709,32 L707,32 L707,28 C707,27.448 706.553,27 706,27 C705.447,27 705,27.448 705,28 L705,32 L703,32 L703,27 C703,26.447 702.553,26 702,26 C701.447,26 701,26.447 701,27 L701,32 L699,32 L699,28 C699,27.448 698.553,27 698,27 C697.447,27 697,27.448 697,28 L697,32 L691,32 L691,23 L723,23 L723,32 L723,32 Z M723,21 L721,21 L721,16 C721,15.448 720.553,15 720,15 C719.447,15 719,15.448 719,16 L719,21 L717,21 L717,15 C717,14.447 716.553,14 716,14 C715.447,14 715,14.447 715,15 L715,21 L713,21 L713,16 C713,15.448 712.553,15 712,15 C711.447,15 711,15.448 711,16 L711,21 L709,21 L709,15 C709,14.447 708.553,14 708,14 C707.447,14 707,14.447 707,15 L707,21 L703,21 L703,16 C703,15.448 702.553,15 702,15 C701.447,15 701,15.448 701,16 L701,21 L699,21 L699,16 C699,15.448 698.553,15 698,15 C697.447,15 697,15.448 697,16 L697,21 L695,21 L695,15 C695,14.447 694.553,14 694,14 C693.447,14 693,14.447 693,15 L693,21 L691,21 L691,12 L723,12 L723,21 L723,21 Z M723,10 L721,10 L721,6 C721,5.447 720.553,5 720,5 C719.447,5 719,5.447 719,6 L719,10 L717,10 L717,6 C717,5.447 716.553,5 716,5 C715.447,5 715,5.447 715,6 L715,10 L713,10 L713,5 C713,4.448 712.553,4 712,4 C711.447,4 711,4.448 711,5 L711,10 L709,10 L709,6 C709,5.447 708.553,5 708,5 C707.447,5 707,5.447 707,6 L707,10 L705,10 L705,5 C705,4.448 704.553,4 704,4 C703.447,4 703,4.448 703,5 L703,10 L699,10 L699,6 C699,5.447 698.553,5 698,5 C697.447,5 697,5.447 697,6 L697,10 L695,10 L695,5 C695,4.448 694.553,4 694,4 C693.447,4 693,4.448 693,5 L693,10 L691,10 L691,2 L723,2 L723,10 L723,10 Z" id="bookshelf"></path>
                <path d="M678,26 L658,26 C658.552,26 659,25.553 659,25 C659,24.448 658.552,24 658,24 L657,24 L657,18 C657,16.896 656.104,16 655,16 L645,16 C643.896,16 643,16.896 643,18 L643,24 L642,24 C641.448,24 641,24.448 641,25 C641,25.553 641.448,26 642,26 L636,26 C635.448,26 635,26.447 635,27 C635,27.553 635.448,28 636,28 L641,28 L641,43 C641,43.553 641.448,44 642,44 C642.552,44 643,43.553 643,43 L643,28 L671,28 L671,43 C671,43.553 671.448,44 672,44 C672.552,44 673,43.553 673,43 L673,28 L678,28 C678.552,28 679,27.553 679,27 C679,26.447 678.552,26 678,26 L678,26 Z M645,18 L655,18 L655,24 L645,24 L645,18 Z M672,8 L673,8 C673.552,8 674,7.553 674,7 C674,6.448 673.552,6 673,6 L673,5 C673,4.448 672.552,4 672,4 C671.448,4 671,4.448 671,5 L671,7 C671,7.553 671.448,8 672,8 L672,8 Z M672,14 C675.866,14 679,10.865 679,7 C679,3.134 675.866,0 672,0 C668.134,0 665,3.134 665,7 C665,10.865 668.134,14 672,14 L672,14 Z M672,2 C674.762,2 677,4.239 677,7 C677,9.762 674.762,12 672,12 C669.239,12 667,9.762 667,7 C667,4.239 669.239,2 672,2 L672,2 Z" id="desk"></path>
            </g>
        </g>
    </g>
</svg>