<?xml version="1.0" encoding="UTF-8" standalone="no"?>
<svg width="40px" height="20px" viewBox="0 0 40 20" version="1.1" xmlns="http://www.w3.org/2000/svg" xmlns:xlink="http://www.w3.org/1999/xlink" xmlns:sketch="http://www.bohemiancoding.com/sketch/ns">
    <!-- Generator: Sketch 3.4.3 (16618) - http://www.bohemiancoding.com/sketch -->
    <title>down</title>
    <desc>Created with Sketch.</desc>
    <defs></defs>
    <g id="Page-1" stroke="none" stroke-width="1" fill="none" fill-rule="evenodd" sketch:type="MSPage">
        <g id="L" sketch:type="MSArtboardGroup" transform="translate(-520.000000, -692.000000)" fill="#E09F7D">
            <g id="masthead" sketch:type="MSLayerGroup" transform="translate(30.000000, 120.000000)">
                <path d="M529,572 C528.724,572 528.474,572.113 528.293,572.293 L510,589.623 L491.707,572.293 C491.526,572.113 491.276,572 491,572 C490.447,572 490,572.447 490,573 C490,573.276 490.111,573.526 490.293,573.707 L509.293,591.707 C509.474,591.889 509.724,592 510,592 C510.276,592 510.526,591.889 510.707,591.707 L529.707,573.707 C529.889,573.526 530,573.276 530,573 C530,572.447 529.553,572 529,572" id="down" sketch:type="MSShapeGroup"></path>
            </g>
        </g>
    </g>
</svg>