<?xml version="1.0" encoding="UTF-8" standalone="no"?>
<svg width="88px" height="72px" viewBox="0 0 88 72" version="1.1" xmlns="http://www.w3.org/2000/svg" xmlns:xlink="http://www.w3.org/1999/xlink" xmlns:sketch="http://www.bohemiancoding.com/sketch/ns">
    <!-- Generator: Sketch 3.4.3 (16618) - http://www.bohemiancoding.com/sketch -->
    <title>notecard-a</title>
    <desc>Created with Sketch.</desc>
    <defs></defs>
    <g id="Contact" stroke="none" stroke-width="1" fill="none" fill-rule="evenodd" sketch:type="MSPage">
        <g id="M" sketch:type="MSArtboardGroup" transform="translate(-336.000000, -269.000000)" fill="#85B4D2">
            <g id="contact" sketch:type="MSLayerGroup" transform="translate(0.000000, 191.000000)">
                <path d="M400,142 C398.894,142 398,142.894 398,144 L398,148 C398,149.106 398.894,150 400,150 C401.106,150 402,149.106 402,148 L402,144 C402,142.894 401.106,142 400,142 L400,142 Z M350,98 L410,98 C411.106,98 412,97.108 412,96 C412,94.896 411.106,94 410,94 L350,94 C348.894,94 348,94.896 348,96 C348,97.108 348.894,98 350,98 L350,98 Z M360,142 C358.894,142 358,142.894 358,144 L358,148 C358,149.106 358.894,150 360,150 C361.106,150 362,149.106 362,148 L362,144 C362,142.894 361.106,142 360,142 L360,142 Z M420,78 L340,78 C337.792,78 336,79.792 336,82 L336,142 C336,144.208 337.792,146 340,146 L352,146 C353.106,146 354,145.108 354,144 C354,140.688 356.688,138 360,138 C363.312,138 366,140.688 366,144 C366,145.108 366.894,146 368,146 L392,146 C393.106,146 394,145.108 394,144 C394,140.688 396.686,138 400,138 C403.314,138 406,140.688 406,144 C406,145.108 406.894,146 408,146 L420,146 C422.208,146 424,144.208 424,142 L424,82 C424,79.792 422.208,78 420,78 L420,78 Z M420,142 L409.798,142 C408.87,137.438 404.838,134 400,134 C395.162,134 391.128,137.438 390.202,142 L369.798,142 C368.87,137.438 364.838,134 360,134 C355.162,134 351.128,137.438 350.204,142 L340,142 L340,82 L420,82 L420,142 L420,142 Z M350,122 L390,122 C391.106,122 392,121.104 392,120.004 C392,118.894 391.106,118 390,118 L350,118 C348.894,118 348,118.894 348,120.004 C348,121.104 348.894,122 350,122 L350,122 Z M350,114 L410,114 C411.106,114 412,113.106 412,112 C412,110.894 411.106,110 410,110 L350,110 C348.894,110 348,110.894 348,112 C348,113.106 348.894,114 350,114 L350,114 Z M350,106 L410,106 C411.106,106 412,105.106 412,104 C412,102.896 411.106,102 410,102 L350,102 C348.894,102 348,102.896 348,104 C348,105.106 348.894,106 350,106 L350,106 Z" id="notecard-a" sketch:type="MSShapeGroup"></path>
            </g>
        </g>
    </g>
</svg>