<?xml version="1.0" encoding="UTF-8" standalone="no"?>
<svg width="88px" height="88px" viewBox="0 0 88 88" version="1.1" xmlns="http://www.w3.org/2000/svg" xmlns:xlink="http://www.w3.org/1999/xlink" xmlns:sketch="http://www.bohemiancoding.com/sketch/ns">
    <!-- Generator: Sketch 3.4.3 (16618) - http://www.bohemiancoding.com/sketch -->
    <title>presentation-text</title>
    <desc>Created with Sketch.</desc>
    <defs></defs>
    <g id="Page-1" stroke="none" stroke-width="1" fill="none" fill-rule="evenodd" sketch:type="MSPage">
        <g id="M" sketch:type="MSArtboardGroup" transform="translate(-336.000000, -1372.000000)">
            <g id="credentials" sketch:type="MSLayerGroup" transform="translate(0.000000, 673.000000)">
                <rect id="Rectangle-5" fill="#4E4D5C" sketch:type="MSShapeGroup" x="0" y="0" width="760" height="1189"></rect>
                <path d="M386,735 L406,735 C407.104,735 408,734.106 408,733 C408,731.896 407.104,731 406,731 L386,731 C384.896,731 384,731.896 384,733 C384,734.106 384.896,735 386,735 L386,735 Z M386,727 L398,727 C399.104,727 400,726.106 400,725 C400,723.896 399.104,723 398,723 L386,723 C384.896,723 384,723.896 384,725 C384,726.106 384.896,727 386,727 L386,727 Z M386,743 L394,743 C395.104,743 396,742.106 396,741 C396,739.896 395.104,739 394,739 L386,739 C384.896,739 384,739.896 384,741 C384,742.106 384.896,743 386,743 L386,743 Z M356,751 L372,751 C374.208,751 376,749.21 376,747 L376,727 C376,724.792 374.208,723 372,723 L356,723 C353.792,723 352,724.792 352,727 L352,747 C352,749.21 353.792,751 356,751 L356,751 Z M356,727 L372,727 L372,747 L356,747 L356,727 Z M386,751 L406,751 C407.104,751 408,750.106 408,749 C408,747.896 407.104,747 406,747 L386,747 C384.896,747 384,747.896 384,749 C384,750.106 384.896,751 386,751 L386,751 Z M420,703 L384,703 C384,700.792 382.208,699 380,699 C377.792,699 376,700.792 376,703 L340,703 C337.792,703 336,704.794 336,707 L336,711 C336,713.21 337.792,715 340,715 L340,763 C340,765.21 341.792,767 344,767 L378,767 L378,772.172 L366.586,783.586 C366.224,783.95 366,784.45 366,785 C366,786.106 366.896,787 368,787 C368.552,787 369.052,786.778 369.414,786.414 L380,775.828 L390.586,786.414 C390.948,786.778 391.448,787 392,787 C393.104,787 394,786.106 394,785 C394,784.45 393.776,783.95 393.414,783.586 L382,772.172 L382,767 L416,767 C418.208,767 420,765.21 420,763 L420,715 C422.208,715 424,713.21 424,711 L424,707 C424,704.794 422.208,703 420,703 L420,703 Z M344,715 L416,715 L416,763 L344,763 L344,715 Z M340,707 L420,707 L420,711 L340,711 L340,707 Z" id="presentation-text" fill="#85B4D2" sketch:type="MSShapeGroup"></path>
            </g>
        </g>
    </g>
</svg>