<?xml version="1.0" encoding="UTF-8" standalone="no"?>
<svg width="214px" height="54px" viewBox="0 0 214 54" version="1.1" xmlns="http://www.w3.org/2000/svg" xmlns:xlink="http://www.w3.org/1999/xlink" xmlns:sketch="http://www.bohemiancoding.com/sketch/ns">
    <!-- Generator: Sketch 3.4.3 (16618) - http://www.bohemiancoding.com/sketch -->
    <title>linkedin</title>
    <desc>Created with Sketch.</desc>
    <defs></defs>
    <g id="About" stroke="none" stroke-width="1" fill="none" fill-rule="evenodd" sketch:type="MSPage">
        <g id="L" sketch:type="MSArtboardGroup" transform="translate(-432.000000, -927.000000)">
            <g id="about" sketch:type="MSLayerGroup" transform="translate(0.000000, 234.000000)">
                <g id="linkedin" transform="translate(432.000000, 693.000000)" sketch:type="MSShapeGroup">
                    <path d="M0,7.9866 L0,46.01385 L23.8089948,46.01385 L23.8089948,38.327475 L8.34891608,38.327475 L8.34891608,7.9866 L0,7.9866 Z" id="Fill-1" fill="#FEFEFE"></path>
                    <path d="M31.5086259,7.4229 C34.0784773,7.4229 36.1642028,9.503775 36.1642028,12.065025 C36.1642028,14.630775 34.0784773,16.70715 31.5086259,16.70715 C28.9417815,16.70715 26.8560559,14.630775 26.8560559,12.065025 C26.8560559,9.503775 28.9417815,7.4229 31.5086259,7.4229 L31.5086259,7.4229 Z M27.4957937,20.233275 L35.521458,20.233275 L35.521458,46.00365 L27.4957937,46.00365 L27.4957937,20.233275 Z" id="Fill-2" fill="#FEFEFE"></path>
                    <path d="M69.0672465,7.984125 L77.089528,7.984125 L77.089528,30.711375 L86.1781643,20.221875 L96.0140385,20.221875 L85.4884353,32.15325 L95.7937762,46.013625 L85.7086976,46.013625 L77.1943969,33.274875 L77.089528,33.274875 L77.089528,46.013625 L69.0672465,46.013625 L69.0672465,7.984125 Z" id="Fill-4" fill="#FEFEFE"></path>
                    <path d="M39.9597421,20.23665 L47.6636582,20.23665 L47.6636582,23.759025 L47.7707823,23.759025 C48.8397684,21.731025 51.4614904,19.597275 55.3671984,19.597275 C63.4992351,19.597275 64.9974694,24.933525 64.9974694,31.87065 L64.9974694,46.00365 L56.9718051,46.00365 L56.9718051,33.473775 C56.9718051,30.483525 56.9169274,26.64165 52.797347,26.64165 C48.6255201,26.64165 47.9850306,29.8989 47.9850306,33.25965 L47.9850306,46.00365 L39.9597421,46.00365 L39.9597421,20.23665 Z" id="Fill-6" fill="#FEFEFE"></path>
                    <path d="M119.698281,41.5414875 C117.128053,44.7987375 112.905483,46.6684875 108.730649,46.6684875 C100.707616,46.6684875 94.2873103,41.3281125 94.2873103,33.0556125 C94.2873103,24.7831125 100.707616,19.4472375 108.730649,19.4472375 C116.224828,19.4472375 120.929644,24.7831125 120.929644,33.0556125 L120.929644,35.5643625 L102.312599,35.5643625 C102.949705,38.6071125 105.253438,40.5818625 108.357031,40.5818625 C110.979504,40.5818625 112.743482,39.2472375 114.081594,37.4318625 L119.698281,41.5414875 Z M112.905483,30.1219875 C112.958106,27.4527375 110.872004,25.2113625 107.980405,25.2113625 C104.450947,25.2113625 102.524216,27.6128625 102.312599,30.1219875 L112.905483,30.1219875 Z" id="Fill-8" fill="#FEFEFE"></path>
                    <path d="M151.451225,45.999375 L144.066426,45.999375 L144.066426,42.582375 L143.961933,42.582375 C142.727562,44.449875 139.627728,46.6395 135.988515,46.6395 C128.282344,46.6395 123.201277,41.090625 123.201277,33.243375 C123.201277,26.036625 127.694476,19.418625 135.07702,19.418625 C138.39674,19.418625 141.49883,20.32575 143.318436,22.83375 L143.424057,22.83375 L143.424057,7.984125 L151.451225,7.984125 L151.451225,45.999375 Z M137.643113,26.4645 C133.633663,26.4645 131.226566,29.135625 131.226566,33.0285 C131.226566,36.928875 133.633663,39.594 137.643113,39.594 C141.658952,39.594 144.066426,36.928875 144.066426,33.0285 C144.066426,29.135625 141.658952,26.4645 137.643113,26.4645 L137.643113,26.4645 Z" id="Fill-10" fill="#FEFEFE"></path>
                    <path d="M209.596434,0 L163.471416,0 C161.26729,0 159.476626,1.743 159.476626,3.892125 L159.476626,50.103375 C159.476626,52.254375 161.26729,54 163.471416,54 L209.596434,54 C211.804318,54 213.603252,52.254375 213.603252,50.103375 L213.603252,3.892125 C213.603252,1.743 211.804318,0 209.596434,0" id="Fill-12" fill="#007AB5"></path>
                    <path d="M171.517152,7.43445 C174.083997,7.43445 176.169722,9.515325 176.169722,12.076575 C176.169722,14.64045 174.083997,16.722075 171.517152,16.722075 C168.944294,16.722075 166.861575,14.64045 166.861575,12.076575 C166.861575,9.515325 168.944294,7.43445 171.517152,7.43445 L171.517152,7.43445 Z M167.501313,20.244825 L175.529233,20.244825 L175.529233,46.0152 L167.501313,46.0152 L167.501313,20.244825 Z" id="Fill-14" fill="#FEFEFE"></path>
                    <path d="M180.564555,20.2448625 L188.26584,20.2448625 L188.26584,23.7657375 L188.372588,23.7657375 C189.44383,21.7396125 192.06292,19.6036125 195.968253,19.6036125 C204.097658,19.6036125 205.598899,24.9409875 205.598899,31.8792375 L205.598899,46.0152375 L197.576242,46.0152375 L197.576242,33.4831125 C197.576242,30.4932375 197.520989,26.6494875 193.404415,26.6494875 C189.226574,26.6494875 188.586837,29.9052375 188.586837,33.2667375 L188.586837,46.0152375 L180.564555,46.0152375 L180.564555,20.2448625 Z" id="Fill-16" fill="#FEFEFE"></path>
                </g>
            </g>
        </g>
    </g>
</svg>