<?xml version="1.0" encoding="UTF-8" standalone="no"?>
<svg width="88px" height="88px" viewBox="0 0 88 88" version="1.1" xmlns="http://www.w3.org/2000/svg" xmlns:xlink="http://www.w3.org/1999/xlink" xmlns:sketch="http://www.bohemiancoding.com/sketch/ns">
    <!-- Generator: Sketch 3.4.3 (16618) - http://www.bohemiancoding.com/sketch -->
    <title>medical-box</title>
    <desc>Created with Sketch.</desc>
    <defs></defs>
    <g id="Services" stroke="none" stroke-width="1" fill="none" fill-rule="evenodd" sketch:type="MSPage">
        <g id="L" sketch:type="MSArtboardGroup" transform="translate(-699.000000, -344.000000)" fill="#85B4D2">
            <g id="services" sketch:type="MSLayerGroup" transform="translate(0.000000, 244.000000)">
                <g id="Expert-Witness-&amp;-Medical-Writer" transform="translate(570.000000, 100.000000)" sketch:type="MSShapeGroup">
                    <path d="M209,0 L137,0 C132.582,0 129,3.582 129,8 L129,80 C129,84.418 132.582,88 137,88 L209,88 C213.418,88 217,84.418 217,80 L217,8 C217,3.582 213.418,0 209,0 L209,0 Z M213,80 C213,82.208 211.208,84 209,84 L137,84 C134.792,84 133,82.208 133,80 L133,8 C133,5.794 134.792,4 137,4 L209,4 C211.208,4 213,5.794 213,8 L213,80 L213,80 Z M193,36 L181,36 L181,24 C181,21.792 179.208,20 177,20 L169,20 C166.792,20 165,21.792 165,24 L165,36 L153,36 C150.792,36 149,37.794 149,40 L149,48 C149,50.208 150.792,52 153,52 L165,52 L165,64 C165,66.208 166.792,68 169,68 L177,68 C179.208,68 181,66.208 181,64 L181,52 L193,52 C195.208,52 197,50.208 197,48 L197,40 C197,37.794 195.208,36 193,36 L193,36 Z M193,48 L177,48 L177,64 L169,64 L169,48 L153,48 L153,40 L169,40 L169,24 L177,24 L177,40 L193,40 L193,48 L193,48 Z" id="medical-box"></path>
                </g>
            </g>
        </g>
    </g>
</svg>