<?xml version="1.0" encoding="UTF-8" standalone="no"?>
<svg width="60px" height="49px" viewBox="0 0 60 49" version="1.1" xmlns="http://www.w3.org/2000/svg" xmlns:xlink="http://www.w3.org/1999/xlink" xmlns:sketch="http://www.bohemiancoding.com/sketch/ns">
    <!-- Generator: Sketch 3.4.3 (16618) - http://www.bohemiancoding.com/sketch -->
    <title>twitter</title>
    <desc>Created with Sketch.</desc>
    <defs></defs>
    <g id="About" stroke="none" stroke-width="1" fill="none" fill-rule="evenodd" sketch:type="MSPage">
        <g id="About-XL" sketch:type="MSArtboardGroup" transform="translate(-690.000000, -1001.000000)" fill="#2BA9E1">
            <g id="about" sketch:type="MSLayerGroup" transform="translate(0.000000, 234.000000)">
                <path d="M742.9302,774.748123 C745.4712,773.21725 747.4233,770.793117 748.3425,767.904415 C745.9638,769.321935 743.3295,770.351461 740.5254,770.906168 C738.2802,768.501932 735.081,767 731.5404,767 C724.7424,767 719.2305,772.538336 719.2305,779.369684 C719.2305,780.339217 719.3394,781.283426 719.5494,782.188746 C709.3188,781.672928 700.2483,776.748087 694.1772,769.264052 C693.1176,771.090971 692.5104,773.215743 692.5104,775.48281 C692.5104,779.774561 694.6836,783.560743 697.9866,785.779274 C695.9688,785.714759 694.0707,785.158543 692.4111,784.231819 C692.4099,784.283673 692.4099,784.335224 692.4099,784.38768 C692.4099,790.380937 696.6531,795.380242 702.2844,796.517092 C701.2515,796.799571 700.164,796.950909 699.0414,796.950909 C698.2482,796.950909 697.4769,796.873431 696.7251,796.729026 C698.2917,801.643316 702.8376,805.219976 708.2244,805.319462 C704.0115,808.637459 698.7039,810.615113 692.9364,810.615113 C691.9428,810.615113 690.963,810.556326 690,810.441767 C695.4477,813.951801 701.9181,816 708.8697,816 C731.5116,816 743.8935,797.150484 743.8935,780.804086 C743.8935,780.267768 743.8812,779.734164 743.8575,779.203573 C746.2629,777.45956 748.3497,775.281125 750,772.800315 C747.7926,773.784319 745.4199,774.449064 742.9302,774.748123 Z" id="twitter" sketch:type="MSShapeGroup"></path>
            </g>
        </g>
    </g>
</svg>