<?xml version="1.0" encoding="UTF-8"?>
<svg width="36px" height="44px" viewBox="0 0 36 44" version="1.1" xmlns="http://www.w3.org/2000/svg" xmlns:xlink="http://www.w3.org/1999/xlink">
    <!-- Generator: Sketch 40.3 (33839) - http://www.bohemiancoding.com/sketch -->
    <title>icon-whitepaper</title>
    <desc>Created with Sketch.</desc>
    <defs></defs>
    <g id="Home" stroke="none" stroke-width="1" fill="none" fill-rule="evenodd">
        <path d="M21,33 L9,33 C8.447,33 8,33.448 8,34 C8,34.554 8.447,35 9,35 L21,35 C21.553,35 22,34.554 22,34 C22,33.448 21.553,33 21,33 L21,33 Z M9,11 L14,11 C14.553,11 15,10.554 15,10 C15,9.448 14.553,9 14,9 L9,9 C8.447,9 8,9.448 8,10 C8,10.554 8.447,11 9,11 L9,11 Z M27,25 L9,25 C8.447,25 8,25.448 8,26 C8,26.554 8.447,27 9,27 L27,27 C27.553,27 28,26.554 28,26 C28,25.448 27.553,25 27,25 L27,25 Z M8,18 C8,18.553 8.447,19 9,19 L27,19 C27.553,19 28,18.553 28,18 C28,17.448 27.553,17 27,17 L9,17 C8.447,17 8,17.448 8,18 L8,18 Z M26,0 L4,0 C1.791,0 0,1.791 0,4 L0,40 C0,42.21 1.791,44 4,44 L32,44 C34.209,44 36,42.21 36,40 L36,11 L26,0 L26,0 Z M34,40 C34,41.106 33.104,42 32,42 L4,42 C2.894,42 2,41.106 2,40 L2,4 C2,2.896 2.894,2 4,2 L22,2 L22,12 C22,13.104 22.896,14 24,14 L34,14 L34,40 L34,40 Z M24,12 L24,2 L25,2 L34,12 L24,12 L24,12 Z" id="icon-whitepaper" fill="#FFFFFF"></path>
    </g>
</svg>