<?xml version="1.0" encoding="UTF-8"?>
<svg width="44px" height="36px" viewBox="0 0 44 36" version="1.1" xmlns="http://www.w3.org/2000/svg" xmlns:xlink="http://www.w3.org/1999/xlink">
    <!-- Generator: Sketch 40.3 (33839) - http://www.bohemiancoding.com/sketch -->
    <title>newspaper</title>
    <desc>Created with Sketch.</desc>
    <defs></defs>
    <g id="Of-Interest" stroke="none" stroke-width="1" fill="none" fill-rule="evenodd">
        <g id="Post-XL" transform="translate(-518.000000, -1953.000000)" fill="#4E4D5C">
            <g id="post" transform="translate(220.000000, 265.000000)">
                <g id="form--newsletter" transform="translate(129.000000, 1688.000000)">
                    <path d="M190,8 L198,8 C198.552,8 199,7.553 199,7 C199,6.447 198.552,6 198,6 L190,6 C189.448,6 189,6.447 189,7 C189,7.553 189.448,8 190,8 L190,8 Z M202,8 C202.552,8 203,7.553 203,7 C203,6.447 202.552,6 202,6 C201.448,6 201,6.447 201,7 C201,7.553 201.448,8 202,8 L202,8 Z M206,8 C206.552,8 207,7.553 207,7 C207,6.447 206.552,6 206,6 C205.448,6 205,6.447 205,7 C205,7.553 205.448,8 206,8 L206,8 Z M206,16 L198,16 C197.448,16 197,16.448 197,17 C197,17.553 197.448,18 198,18 L206,18 C206.552,18 207,17.553 207,17 C207,16.448 206.552,16 206,16 L206,16 Z M206,20.001 L198,20.001 C197.448,20.001 197,20.447 197,21 C197,21.554 197.448,22 198,22 L206,22 C206.552,22 207,21.554 207,21 C207,20.447 206.552,20.001 206,20.001 L206,20.001 Z M206,12 L198,12 C197.448,12 197,12.448 197,13 C197,13.553 197.448,14 198,14 L206,14 C206.552,14 207,13.553 207,13 C207,12.448 206.552,12 206,12 L206,12 Z M186,8 C186.552,8 187,7.553 187,7 C187,6.447 186.552,6 186,6 C185.448,6 185,6.447 185,7 C185,7.553 185.448,8 186,8 L186,8 Z M182,26 L206,26 C206.552,26 207,25.553 207,25 C207,24.447 206.552,24.001 206,24.001 L182,24.001 C181.448,24.001 181,24.447 181,25 C181,25.553 181.448,26 182,26 L182,26 Z M182,30 L206,30 C206.552,30 207,29.553 207,29 C207,28.447 206.552,28.001 206,28.001 L182,28.001 C181.448,28.001 181,28.447 181,29 C181,29.553 181.448,30 182,30 L182,30 Z M211,0 L177,0 C175.896,0 175,0.896 175,2 L175,6 L171,6 C169.896,6 169,6.896 169,8 L169,30 C169,33.313 171.686,36 175,36 L211,36 C212.104,36 213,35.104 213,34 L213,2 C213,0.896 212.104,0 211,0 L211,0 Z M211,34 L175,34 C172.791,34 171,32.209 171,30 L171,8 L175,8 L175,29 C175,29.553 175.448,30 176,30 C176.552,30 177,29.553 177,29 L177,2 L211,2 L211,34 L211,34 Z M182,8 C182.552,8 183,7.553 183,7 C183,6.447 182.552,6 182,6 C181.448,6 181,6.447 181,7 C181,7.553 181.448,8 182,8 L182,8 Z M182,22 L192,22 C192.552,22 193,21.554 193,21 L193,13 C193,12.448 192.552,12 192,12 L182,12 C181.448,12 181,12.448 181,13 L181,21 C181,21.554 181.448,22 182,22 L182,22 Z M183,14 L191,14 L191,20.001 L183,20.001 L183,14 Z" id="newspaper"></path>
                </g>
            </g>
        </g>
    </g>
</svg>